<svg width="10000" height="4000" viewBox="0 0 10000 4000" fill="none" xmlns="http://www.w3.org/2000/svg">
<path d="M4025.91 994.727V999.644C4025.91 999.644 4025.91 1004.56 4023.45 1011.94C4020.99 1019.31 4020.99 1024.23 4020.99 1029.15C4020.99 1034.07 4018.54 1041.44 4018.54 1051.28C4018.54 1061.11 4016.08 1068.49 4016.08 1078.32C4016.08 1088.16 4016.08 1095.53 4016.08 1107.83C4016.08 1117.66 4018.54 1127.5 4020.99 1139.79C4023.45 1149.62 4025.91 1159.46 4028.37 1171.75L4175.89 1621.69L4306.2 1208.63L4291.45 1161.92C4271.78 1105.37 4247.19 1051.28 4215.23 1002.1V994.727H4448.81V999.644C4441.43 1029.15 4438.97 1058.65 4438.97 1085.7C4438.97 1115.2 4443.89 1144.71 4451.27 1169.29L4598.79 1619.23L4729.1 1201.26C4738.93 1171.75 4743.85 1139.79 4743.85 1105.37C4743.85 1070.95 4738.93 1036.52 4729.1 997.185V994.727H4869.24V999.644C4839.74 1046.36 4815.15 1100.45 4795.48 1159.46L4598.79 1791.34H4505.36L4333.25 1279.93L4173.43 1791.34H4082.46L3868.56 1159.46C3851.34 1102.91 3826.76 1051.28 3792.34 999.644V994.727H4025.91Z" fill="white"/>
<path d="M4893.83 1306.97C4943 1255.34 5009.39 1230.75 5088.07 1230.75C5166.75 1230.75 5228.21 1255.34 5270.01 1306.97C5311.81 1358.6 5333.94 1422.53 5333.94 1498.75H4970.05C4974.97 1562.68 4992.18 1611.85 5021.68 1651.19C5051.19 1688.07 5092.99 1707.74 5149.54 1707.74C5208.54 1707.74 5267.55 1683.15 5326.56 1633.98L5331.48 1636.44C5314.27 1680.69 5282.3 1720.03 5240.51 1751.99C5198.71 1783.96 5147.08 1798.71 5090.53 1798.71C5016.77 1798.71 4952.84 1774.12 4901.21 1722.49C4847.12 1670.86 4822.53 1602.01 4822.53 1513.5C4817.61 1427.45 4842.2 1358.6 4893.83 1306.97ZM4967.59 1469.25L5193.79 1444.66C5191.33 1393.03 5183.96 1351.23 5166.75 1319.26C5149.53 1287.3 5122.49 1270.09 5085.61 1270.09C5046.27 1270.09 5014.31 1289.76 4997.1 1326.64C4977.43 1363.52 4967.59 1410.24 4967.59 1464.33C4967.59 1466.79 4967.59 1466.79 4967.59 1469.25Z" fill="white"/>
<path d="M5397.86 992.26V987.343L5565.05 965.215V1621.69C5565.05 1653.65 5574.89 1710.2 5592.1 1783.96V1788.88H5400.32V1783.96C5417.53 1707.74 5427.37 1653.65 5427.37 1621.69V1149.62C5427.37 1097.98 5417.53 1043.89 5397.86 992.26Z" fill="white"/>
<path d="M5724.87 1304.52C5776.5 1255.35 5840.43 1228.3 5921.57 1228.3C5975.66 1228.3 6044.5 1245.51 6125.64 1279.93L6128.1 1432.37H6123.18C6098.59 1390.57 6066.63 1351.24 6032.21 1319.27C5997.78 1287.31 5963.36 1270.1 5926.48 1270.1C5884.68 1270.1 5852.72 1289.77 5833.05 1326.65C5810.92 1365.99 5801.09 1412.7 5801.09 1469.25C5801.09 1471.71 5801.09 1471.71 5801.09 1474.17C5801.09 1545.47 5818.3 1602.02 5847.8 1643.82C5877.31 1685.62 5921.57 1707.75 5980.57 1707.75C6037.12 1707.75 6096.13 1685.62 6152.68 1641.36L6155.14 1643.82C6135.47 1688.08 6105.97 1724.96 6066.63 1756.92C6024.83 1786.42 5975.66 1801.18 5921.57 1801.18C5847.8 1801.18 5783.88 1776.59 5732.25 1724.96C5678.15 1673.32 5653.57 1604.48 5653.57 1513.51C5648.65 1425 5673.24 1356.15 5724.87 1304.52Z" fill="white"/>
<path d="M6285.45 1304.51C6339.54 1255.34 6405.93 1230.75 6484.61 1230.75C6563.28 1230.75 6632.13 1255.34 6686.22 1304.51C6740.31 1353.69 6767.36 1422.53 6767.36 1511.04C6767.36 1602.01 6740.31 1670.86 6686.22 1722.49C6632.13 1774.12 6565.74 1798.71 6484.61 1798.71C6403.47 1798.71 6339.54 1774.12 6285.45 1722.49C6231.36 1670.86 6204.32 1599.56 6204.32 1511.04C6204.32 1422.53 6231.36 1353.69 6285.45 1304.51ZM6359.21 1511.04C6359.21 1579.89 6369.05 1638.89 6391.18 1685.61C6413.3 1732.33 6445.27 1756.91 6484.61 1756.91C6523.95 1756.91 6555.91 1732.33 6578.04 1685.61C6600.16 1636.44 6612.46 1579.89 6612.46 1511.04C6612.46 1444.66 6600.16 1388.11 6578.04 1341.39C6555.91 1294.68 6523.95 1270.09 6484.61 1270.09C6442.81 1270.09 6410.85 1294.68 6391.18 1341.39C6369.05 1388.11 6359.21 1444.66 6359.21 1511.04Z" fill="white"/>
<path d="M6853.4 1624.14V1405.32C6853.4 1373.36 6843.57 1316.81 6826.36 1243.05V1238.13H6991.09V1326.64C7037.81 1265.18 7091.9 1233.21 7158.28 1233.21C7195.16 1233.21 7227.12 1243.05 7254.17 1260.26C7281.22 1277.47 7303.34 1304.51 7315.64 1341.4C7364.81 1270.09 7423.82 1233.21 7492.66 1233.21C7541.84 1233.21 7581.18 1247.97 7613.14 1279.93C7645.1 1311.89 7662.31 1358.61 7662.31 1420.07V1626.6C7662.31 1658.57 7672.15 1715.12 7689.36 1788.88V1793.79H7500.04V1788.88C7517.25 1712.66 7527.08 1658.57 7527.08 1626.6V1437.28C7527.08 1400.4 7517.25 1370.9 7495.12 1351.23C7475.45 1331.56 7448.41 1321.73 7418.9 1321.73C7386.94 1321.73 7354.98 1336.48 7320.55 1363.52C7323.01 1380.73 7325.47 1400.4 7325.47 1417.61V1624.14C7325.47 1656.11 7335.31 1712.66 7352.52 1786.42V1791.34H7163.2V1786.42C7180.41 1710.2 7190.24 1656.11 7190.24 1624.14V1434.83C7190.24 1397.95 7180.41 1368.44 7158.28 1348.77C7136.15 1329.1 7111.57 1319.27 7082.06 1319.27C7052.56 1319.27 7020.59 1331.56 6988.63 1356.15V1621.69C6988.63 1643.81 6991.09 1665.94 6993.55 1688.07C6996.01 1710.2 7000.92 1732.33 7005.84 1754.46L7013.22 1786.42V1791.34H6826.36V1786.42C6843.57 1710.2 6853.4 1656.11 6853.4 1624.14Z" fill="white"/>
<path d="M7822.13 1306.97C7871.31 1255.34 7937.69 1230.75 8016.37 1230.75C8095.05 1230.75 8156.51 1255.34 8198.31 1306.97C8240.11 1358.6 8262.24 1422.53 8262.24 1498.75H7898.35C7903.27 1562.68 7920.48 1611.85 7949.98 1651.19C7979.49 1688.07 8021.29 1707.74 8077.84 1707.74C8136.85 1707.74 8195.85 1683.15 8254.86 1633.98L8259.78 1636.44C8242.57 1680.69 8210.61 1720.03 8168.81 1751.99C8127.01 1783.96 8075.38 1798.71 8018.83 1798.71C7945.07 1798.71 7881.14 1774.12 7829.51 1722.49C7775.42 1670.86 7750.83 1602.01 7750.83 1513.5C7745.91 1427.45 7772.96 1358.6 7822.13 1306.97ZM7895.89 1469.25L8122.09 1444.66C8119.63 1393.03 8112.26 1351.23 8095.05 1319.26C8077.84 1287.3 8050.79 1270.09 8013.91 1270.09C7974.57 1270.09 7942.61 1289.76 7925.4 1326.64C7905.73 1363.52 7895.89 1410.24 7895.89 1464.33C7895.89 1466.79 7895.89 1466.79 7895.89 1469.25Z" fill="white"/>
<path d="M4193.1 1980.64H4202.94V2155.21H4355.38V2199.47H4202.94V2538.77C4202.94 2597.78 4227.53 2627.28 4279.16 2627.28C4311.12 2627.28 4340.63 2617.45 4370.13 2600.23C4355.38 2634.66 4333.25 2664.16 4306.2 2686.29C4279.16 2708.42 4244.74 2720.71 4205.4 2720.71C4161.14 2720.71 4126.72 2705.96 4102.13 2676.45C4077.55 2646.95 4065.25 2607.61 4065.25 2555.98V2201.93H3984.11V2162.59C4070.17 2130.62 4139.01 2069.16 4193.1 1980.64Z" fill="white"/>
<path d="M4480.77 2224.07C4534.86 2174.9 4601.24 2150.31 4679.92 2150.31C4758.6 2150.31 4827.44 2174.9 4881.53 2224.07C4935.63 2273.25 4962.67 2342.09 4962.67 2430.6C4962.67 2521.58 4935.63 2590.42 4881.53 2642.05C4827.44 2693.68 4761.06 2718.27 4679.92 2718.27C4598.79 2718.27 4534.86 2693.68 4480.77 2642.05C4426.68 2590.42 4399.63 2519.12 4399.63 2430.6C4399.63 2342.09 4426.68 2273.25 4480.77 2224.07ZM4554.53 2430.6C4554.53 2499.45 4564.36 2558.46 4586.49 2605.17C4608.62 2651.89 4640.58 2676.47 4679.92 2676.47C4719.26 2676.47 4751.22 2651.89 4773.35 2605.17C4795.48 2556 4807.77 2499.45 4807.77 2430.6C4807.77 2364.22 4795.48 2307.67 4773.35 2260.95C4751.22 2214.24 4719.26 2189.65 4679.92 2189.65C4638.12 2189.65 4606.16 2214.24 4586.49 2260.95C4564.36 2307.67 4554.53 2364.22 4554.53 2430.6Z" fill="white"/>
<path d="M5274.93 2165.06V2160.15H5301.97L5442.12 2155.23V2231.45C5479 2177.36 5533.09 2150.31 5604.39 2150.31C5665.86 2150.31 5717.49 2174.9 5759.29 2224.07C5801.09 2273.25 5820.76 2339.63 5820.76 2428.14C5820.76 2521.58 5798.63 2592.88 5751.92 2644.51C5705.2 2696.14 5651.11 2720.73 5589.64 2720.73C5530.63 2720.73 5481.46 2698.6 5444.58 2654.34V2764.99C5444.58 2796.95 5454.41 2853.5 5471.62 2927.26V2932.18H5279.85V2927.26C5297.06 2851.04 5306.89 2796.95 5306.89 2764.99V2329.8C5306.89 2317.5 5306.89 2302.75 5304.43 2288C5301.98 2273.25 5301.97 2260.95 5299.52 2246.2C5297.06 2233.91 5294.6 2221.61 5292.14 2211.78C5289.68 2201.95 5287.22 2192.11 5284.76 2182.28C5277.39 2172.44 5274.93 2167.52 5274.93 2165.06ZM5530.63 2649.43C5574.89 2649.43 5609.31 2629.76 5631.44 2587.96C5656.03 2546.16 5665.86 2494.53 5665.86 2430.6C5665.86 2374.05 5656.03 2324.88 5633.9 2288C5611.77 2251.12 5579.81 2231.45 5538.01 2231.45C5503.59 2231.45 5469.17 2248.66 5437.2 2280.62V2615.01C5469.17 2637.13 5498.67 2649.43 5530.63 2649.43Z" fill="white"/>
<path d="M5879.76 2548.61C5879.76 2489.6 5904.35 2445.34 5951.07 2415.84C5997.78 2386.33 6049.41 2371.58 6103.51 2371.58C6118.26 2371.58 6135.47 2371.58 6150.22 2374.04C6174.81 2376.5 6199.39 2381.42 6221.52 2388.79V2319.95C6221.52 2280.61 6214.15 2248.65 6201.85 2226.52C6189.56 2204.39 6169.89 2194.56 6147.76 2194.56C6118.26 2194.56 6076.46 2211.77 6024.83 2248.65C5970.74 2285.53 5938.77 2312.57 5924.02 2332.24H5919.1V2189.64C6010.08 2162.59 6088.75 2147.84 6157.6 2147.84C6223.98 2147.84 6275.61 2165.05 6310.04 2197.02C6344.46 2228.98 6361.67 2273.23 6361.67 2327.33V2575.65C6361.67 2622.37 6376.42 2644.5 6403.47 2644.5C6410.84 2644.5 6420.68 2642.04 6432.97 2637.12V2642.04C6428.05 2664.17 6415.76 2683.84 6398.55 2696.13C6381.34 2710.88 6359.21 2715.8 6332.16 2715.8C6305.12 2715.8 6280.53 2708.42 6263.32 2693.67C6246.11 2678.92 6233.82 2659.25 6226.44 2632.2C6187.1 2688.75 6130.55 2718.26 6059.25 2718.26C6005.16 2718.26 5960.9 2701.05 5928.94 2669.08C5896.98 2634.66 5879.76 2595.32 5879.76 2548.61ZM6056.79 2612.53C6076.46 2634.66 6101.05 2644.5 6133.01 2644.5C6167.43 2644.5 6196.94 2629.75 6223.98 2597.78V2420.76C6216.61 2420.76 6209.23 2420.76 6204.31 2420.76C6187.1 2418.3 6172.35 2418.3 6160.06 2418.3C6125.63 2418.3 6093.67 2428.13 6066.63 2445.34C6039.58 2465.01 6024.83 2492.06 6024.83 2531.4C6024.83 2563.36 6034.66 2590.41 6056.79 2612.53Z" fill="white"/>
<path d="M6509.19 2543.69V2322.4C6509.19 2290.44 6499.35 2233.89 6482.14 2160.13V2155.21H6646.87V2253.56C6669 2209.3 6696.05 2179.8 6725.55 2165.05C6755.06 2150.3 6784.56 2142.92 6809.15 2142.92C6828.82 2142.92 6850.94 2145.38 6873.07 2152.75L6850.94 2302.73H6846.03C6828.82 2285.52 6809.15 2273.23 6791.94 2263.4C6774.73 2253.56 6752.6 2251.1 6732.93 2251.1C6728.01 2251.1 6718.18 2251.1 6703.42 2253.56C6688.67 2256.02 6669 2265.85 6646.87 2283.07V2543.69C6646.87 2565.81 6649.33 2587.94 6651.79 2610.07C6654.25 2632.2 6659.17 2654.33 6664.08 2676.46L6671.46 2708.42V2713.34H6482.14V2708.42C6499.35 2629.74 6509.19 2575.65 6509.19 2543.69Z" fill="white"/>
<path d="M6914.87 2548.61C6914.87 2489.6 6939.46 2445.34 6986.17 2415.84C7032.89 2386.33 7084.52 2371.58 7138.61 2371.58C7153.37 2371.58 7170.58 2371.58 7185.33 2374.04C7209.92 2376.5 7234.5 2381.42 7256.63 2388.79V2319.95C7256.63 2280.61 7249.26 2248.65 7236.96 2226.52C7224.67 2204.39 7205 2194.56 7182.87 2194.56C7153.37 2194.56 7111.57 2211.77 7059.94 2248.65C7005.84 2285.53 6973.88 2312.57 6959.13 2332.24H6954.21V2189.64C7045.18 2162.59 7123.86 2147.84 7192.7 2147.84C7259.09 2147.84 7310.72 2165.05 7345.14 2197.02C7379.57 2228.98 7396.78 2273.23 7396.78 2327.33V2575.65C7396.78 2622.37 7411.53 2644.5 7438.57 2644.5C7445.95 2644.5 7455.79 2642.04 7468.08 2637.12L7470.54 2639.58C7465.62 2661.71 7453.33 2681.38 7436.12 2693.67C7418.9 2708.42 7396.78 2713.34 7369.73 2713.34C7342.69 2713.34 7318.1 2705.96 7300.89 2691.21C7283.68 2676.46 7271.38 2656.79 7264.01 2629.75C7224.67 2686.3 7168.12 2715.8 7096.82 2715.8C7042.72 2715.8 6998.47 2698.59 6966.51 2666.63C6932.08 2634.66 6914.87 2595.32 6914.87 2548.61ZM7091.9 2612.53C7111.57 2634.66 7136.15 2644.5 7168.12 2644.5C7202.54 2644.5 7232.04 2629.75 7259.09 2597.78V2420.76C7251.71 2420.76 7244.34 2420.76 7239.42 2420.76C7222.21 2418.3 7207.46 2418.3 7195.16 2418.3C7160.74 2418.3 7128.78 2428.13 7101.73 2445.34C7074.69 2465.01 7059.94 2492.06 7059.94 2531.4C7059.94 2563.36 7072.23 2590.41 7091.9 2612.53Z" fill="white"/>
<path d="M7566.43 2224.06C7610.68 2174.88 7664.77 2150.29 7728.7 2150.29C7797.54 2150.29 7849.18 2177.34 7886.06 2231.43V2069.16C7886.06 2019.98 7873.76 1965.89 7849.18 1911.8V1906.88L8023.74 1884.76V2543.69C8023.74 2575.65 8033.58 2632.2 8050.79 2705.96V2710.88H7922.94C7922.94 2708.42 7918.02 2696.12 7908.18 2676.45C7900.81 2656.79 7893.43 2639.57 7890.97 2627.28C7849.18 2688.75 7792.63 2720.71 7721.32 2720.71C7659.86 2720.71 7608.22 2696.12 7563.97 2644.49C7519.71 2595.32 7497.58 2524.02 7497.58 2435.5C7500.04 2344.53 7522.17 2273.23 7566.43 2224.06ZM7681.98 2585.48C7701.65 2627.28 7736.08 2649.41 7780.33 2649.41C7814.75 2649.41 7851.64 2632.2 7888.52 2595.32C7888.52 2590.4 7888.52 2580.57 7888.52 2565.81V2273.23C7856.55 2241.27 7824.59 2226.51 7787.71 2226.51C7745.91 2226.51 7711.49 2246.18 7689.36 2283.06C7667.23 2319.94 7654.94 2369.12 7654.94 2430.59C7650.02 2492.05 7659.86 2543.69 7681.98 2585.48Z" fill="white"/>
<path d="M8136.84 1965.9C8136.84 1941.31 8146.68 1921.64 8163.89 1904.43C8181.1 1887.22 8203.23 1877.38 8227.81 1877.38C8252.4 1877.38 8274.53 1887.22 8291.74 1904.43C8308.95 1921.64 8318.78 1943.77 8318.78 1965.9C8318.78 1990.48 8308.95 2010.15 8291.74 2029.82C8274.53 2047.03 8252.4 2056.87 8227.81 2056.87C8203.23 2056.87 8181.1 2047.03 8163.89 2029.82C8144.22 2012.61 8136.84 1990.48 8136.84 1965.9ZM8136.84 2160.13V2155.21H8301.57V2543.69C8301.57 2575.65 8311.41 2632.2 8328.62 2705.96V2710.88H8139.3V2705.96C8139.3 2705.96 8141.76 2693.67 8146.68 2674C8151.59 2654.33 8156.51 2632.2 8158.97 2607.61C8161.43 2585.49 8163.89 2563.36 8163.89 2541.23V2322.41C8163.89 2290.44 8154.05 2236.35 8136.84 2160.13Z" fill="white"/>
<path d="M8404.85 2312.57C8404.85 2260.94 8424.52 2221.6 8466.31 2192.1C8505.65 2162.59 8559.74 2147.84 8626.13 2147.84C8690.05 2147.84 8753.98 2162.59 8820.36 2192.1V2327.33H8815.45C8739.23 2236.35 8672.84 2192.1 8613.83 2192.1C8589.25 2192.1 8567.12 2199.47 8549.91 2211.77C8532.7 2224.06 8522.86 2241.27 8522.86 2263.4C8522.86 2290.45 8542.53 2315.03 8581.87 2332.24C8594.16 2337.16 8623.67 2349.45 8670.38 2364.21C8731.85 2386.33 8776.11 2410.92 8803.15 2437.97C8830.2 2465.01 8842.49 2501.89 8842.49 2543.69C8842.49 2602.7 8822.82 2646.96 8781.03 2676.46C8739.23 2705.96 8690.05 2720.72 8628.59 2720.72C8567.12 2720.72 8495.82 2703.51 8414.68 2671.54V2528.94H8419.6C8441.73 2553.53 8458.94 2570.74 8468.77 2580.57C8478.61 2590.41 8495.82 2605.16 8517.95 2624.83C8540.07 2642.04 8559.74 2656.79 8579.41 2664.17C8599.08 2671.54 8618.75 2676.46 8638.42 2676.46C8663.01 2676.46 8685.14 2669.08 8704.81 2656.79C8724.48 2642.04 8731.85 2624.83 8731.85 2597.78C8731.85 2585.49 8729.39 2573.2 8724.48 2563.36C8719.56 2553.53 8709.72 2543.69 8694.97 2536.31C8680.22 2528.94 8665.47 2521.56 8650.72 2514.19C8635.96 2509.27 8616.29 2501.89 8589.25 2492.06C8527.78 2469.93 8483.52 2445.34 8451.56 2418.3C8419.6 2391.25 8404.85 2356.83 8404.85 2312.57Z" fill="white"/>
<path d="M8980.17 2226.53C9029.35 2174.9 9095.73 2150.31 9174.41 2150.31C9253.09 2150.31 9314.56 2174.9 9356.35 2226.53C9398.15 2278.16 9420.28 2342.09 9420.28 2418.31H9056.39C9061.31 2482.24 9078.52 2531.41 9108.03 2570.75C9137.53 2607.63 9179.33 2627.3 9235.88 2627.3C9294.89 2627.3 9353.9 2602.71 9412.9 2553.54L9417.82 2556C9400.61 2600.25 9368.65 2639.59 9326.85 2671.56C9285.05 2703.52 9233.42 2718.27 9176.87 2718.27C9103.11 2718.27 9039.18 2693.68 8987.55 2642.05C8933.46 2590.42 8908.87 2521.57 8908.87 2433.06C8903.96 2347.01 8928.54 2278.16 8980.17 2226.53ZM9053.94 2388.81L9280.13 2364.22C9277.68 2312.59 9270.3 2270.79 9253.09 2238.83C9235.88 2206.86 9208.83 2189.65 9171.95 2189.65C9132.61 2189.65 9100.65 2209.32 9083.44 2246.2C9063.77 2283.08 9053.94 2329.8 9053.94 2383.89C9053.94 2386.35 9053.94 2386.35 9053.94 2388.81Z" fill="white"/>
<path d="M360 908.667C360 908.667 701.758 709.513 974.673 962.759C1247.59 1216 1208.25 1597.1 1235.29 1879.85C1262.34 2162.6 1395.11 2297.83 1559.84 2258.49C1724.57 2219.15 1751.62 1874.93 1822.92 1825.76C1822.92 1825.76 1867.18 2113.43 1965.53 2206.86C2063.87 2300.29 2297.45 2292.91 2403.17 1889.69C2501.52 1518.42 2329.41 1132.41 2508.9 741.476C2508.9 741.476 2521.19 773.439 2518.73 812.778C2518.73 812.778 2614.62 812.778 2690.84 810.32C2690.84 810.32 2703.13 584.12 2575.28 554.616C2447.43 525.111 2223.69 628.377 2176.97 1117.66C2152.39 1395.49 2216.31 1665.94 2186.81 1874.93C2157.3 2083.92 2076.17 2113.43 2034.37 2074.09C1948.31 1997.87 2058.96 1547.93 1776.21 1422.53C1776.21 1422.53 1808.17 1545.47 1741.78 1769.21C1675.4 1992.95 1631.14 2071.63 1559.84 2066.71C1488.54 2061.79 1468.87 1835.59 1461.49 1560.22C1454.12 1284.85 1372.98 876.704 1011.55 724.266C650.126 571.827 421.467 788.191 360 908.667Z" fill="white"/>
<path d="M1636.06 1139.78C1636.06 1139.78 1864.72 1041.43 2152.38 1046.35C2152.38 1046.35 2149.92 945.546 2194.18 842.28C2194.18 842.28 1756.53 815.235 1636.06 1139.78Z" fill="white"/>
<path d="M2511.35 842.277C2511.35 842.277 2486.77 891.451 2472.01 1036.51C2472.01 1036.51 2823.61 1046.35 3133.4 972.588C3443.2 898.827 3482.54 694.756 3482.54 694.756C3482.54 694.756 3320.26 854.571 2511.35 842.277Z" fill="white"/>
<path d="M2528.57 1070.94C2528.57 1070.94 2506.44 1356.15 2469.56 1523.34C2469.56 1523.34 2501.52 1761.83 2403.18 1995.41C2403.18 1995.41 2326.96 2932.17 2973.59 3438.66C2980.97 3443.58 2988.34 3433.74 2983.43 3428.83C2855.57 3286.22 2567.91 2892.83 2575.28 2228.98C2582.66 1373.36 2744.93 1107.82 3008.01 1107.82C3192.42 1107.82 3298.14 1397.95 3199.79 1651.19C3116.2 1870.01 2791.65 1685.61 2629.38 1783.96C2629.38 1783.96 2622 1870.01 2617.08 1965.9C2617.08 1965.9 2676.09 1899.52 2848.2 1926.56C3020.31 1953.61 3266.18 1983.11 3411.24 1702.82C3556.3 1422.53 3344.85 1105.36 3177.66 1051.27C3010.47 997.179 2833.45 1036.52 2693.3 1218.46C2693.3 1218.46 2703.14 1154.54 2698.22 1063.56C2698.22 1061.11 2658.88 1070.94 2528.57 1070.94Z" fill="url(#paint0_linear_610_27)"/>
<defs>
<linearGradient id="paint0_linear_610_27" x1="2930.39" y1="2550.67" x2="2930.39" y2="522.452" gradientUnits="userSpaceOnUse">
<stop stop-color="white"/>
<stop offset="1" stop-color="white"/>
</linearGradient>
</defs>
</svg>
